<?xml version="1.0" encoding="UTF-8" standalone="no"?>
<!-- Created with Inkscape (http://www.inkscape.org/) -->

<svg
   xmlns:dc="http://purl.org/dc/elements/1.1/"
   xmlns:cc="http://creativecommons.org/ns#"
   xmlns:rdf="http://www.w3.org/1999/02/22-rdf-syntax-ns#"
   xmlns:svg="http://www.w3.org/2000/svg"
   xmlns="http://www.w3.org/2000/svg"
   xmlns:sodipodi="http://sodipodi.sourceforge.net/DTD/sodipodi-0.dtd"
   xmlns:inkscape="http://www.inkscape.org/namespaces/inkscape"
   width="600"
   height="600"
   id="svg2"
   version="1.1"
   inkscape:version="0.48.4 r9939"
   sodipodi:docname="icon.svg">
  <defs
     id="defs4" />
  <sodipodi:namedview
     id="base"
     pagecolor="#ffffff"
     bordercolor="#666666"
     borderopacity="1.0"
     inkscape:pageopacity="0.0"
     inkscape:pageshadow="2"
     inkscape:zoom="0.7"
     inkscape:cx="369.39548"
     inkscape:cy="293.46557"
     inkscape:document-units="px"
     inkscape:current-layer="layer3"
     showgrid="false"
     inkscape:window-width="1364"
     inkscape:window-height="703"
     inkscape:window-x="0"
     inkscape:window-y="0"
     inkscape:window-maximized="1"
     showguides="true"
     inkscape:guide-bbox="true">
    <sodipodi:guide
       position="0,0"
       orientation="0,600"
       id="guide3821" />
    <sodipodi:guide
       position="600,0"
       orientation="-600,0"
       id="guide3823" />
    <sodipodi:guide
       position="600,600"
       orientation="0,-600"
       id="guide3825" />
    <sodipodi:guide
       position="0,600"
       orientation="600,0"
       id="guide3827" />
  </sodipodi:namedview>
  <metadata
     id="metadata7">
    <rdf:RDF>
      <cc:Work
         rdf:about="">
        <dc:format>image/svg+xml</dc:format>
        <dc:type
           rdf:resource="http://purl.org/dc/dcmitype/StillImage" />
        <dc:title></dc:title>
      </cc:Work>
    </rdf:RDF>
  </metadata>
  <g
     inkscape:groupmode="layer"
     id="layer2"
     inkscape:label="Capa"
     style="display:inline"
     sodipodi:insensitive="true">
    <rect
       style="fill:#ffffff;fill-opacity:1;stroke:none"
       id="rect3819"
       width="1788.5714"
       height="1622.8572"
       x="-388.57144"
       y="-382.85715"
       ry="30" />
  </g>
  <g
     inkscape:label="Capa 1"
     inkscape:groupmode="layer"
     id="layer1"
     transform="translate(0,-452.36218)"
     sodipodi:insensitive="true">
    <path
       sodipodi:type="arc"
       style="fill:#000000;fill-opacity:1;stroke:#000000;stroke-width:10;stroke-linecap:square;stroke-linejoin:round;stroke-miterlimit:4;stroke-opacity:1;stroke-dasharray:none;stroke-dashoffset:0"
       id="path3004"
       sodipodi:cx="215"
       sodipodi:cy="203.57143"
       sodipodi:rx="150.71428"
       sodipodi:ry="150.71428"
       d="m 365.71428,203.57143 a 150.71428,150.71428 0 1 1 -301.428559,0 150.71428,150.71428 0 1 1 301.428559,0 z"
       transform="translate(77.142857,318.07647)" />
    <path
       transform="matrix(0.86697247,0,0,0.86697247,300.74377,445.87136)"
       d="m 365.71428,203.57143 a 150.71428,150.71428 0 1 1 -301.428559,0 150.71428,150.71428 0 1 1 301.428559,0 z"
       sodipodi:ry="150.71428"
       sodipodi:rx="150.71428"
       sodipodi:cy="203.57143"
       sodipodi:cx="215"
       id="path3774"
       style="fill:#000000;fill-opacity:0.60698691;stroke:#000000;stroke-width:10;stroke-linecap:square;stroke-linejoin:round;stroke-miterlimit:4;stroke-opacity:1;stroke-dasharray:none;stroke-dashoffset:0"
       sodipodi:type="arc" />
    <path
       sodipodi:type="arc"
       style="fill:#000000;fill-opacity:0.42358081;stroke:#000000;stroke-width:10;stroke-linecap:square;stroke-linejoin:round;stroke-miterlimit:4;stroke-opacity:1;stroke-dasharray:none;stroke-dashoffset:0"
       id="path3776"
       sodipodi:cx="215"
       sodipodi:cy="203.57143"
       sodipodi:rx="150.71428"
       sodipodi:ry="150.71428"
       d="m 365.71428,203.57143 a 150.71428,150.71428 0 1 1 -301.428559,0 150.71428,150.71428 0 1 1 301.428559,0 z"
       transform="matrix(0.51376145,0,0,0.51376145,108.827,595.63217)" />
    <path
       sodipodi:type="arc"
       style="fill:#000000;fill-opacity:1;stroke:none"
       id="path3778"
       sodipodi:cx="98.571426"
       sodipodi:cy="538.57141"
       sodipodi:rx="7.1428571"
       sodipodi:ry="7.1428571"
       d="m 105.71428,538.57141 a 7.1428571,7.1428571 0 1 1 -14.285711,0 7.1428571,7.1428571 0 1 1 14.285711,0 z"
       transform="translate(201.42857,400.50634)" />
    <path
       transform="translate(201.42857,384.24465)"
       d="m 105.71428,538.57141 a 7.1428571,7.1428571 0 1 1 -14.285711,0 7.1428571,7.1428571 0 1 1 14.285711,0 z"
       sodipodi:ry="7.1428571"
       sodipodi:rx="7.1428571"
       sodipodi:cy="538.57141"
       sodipodi:cx="98.571426"
       id="path3780"
       style="fill:#000000;fill-opacity:1;stroke:none"
       sodipodi:type="arc" />
    <path
       sodipodi:type="arc"
       style="fill:#000000;fill-opacity:1;stroke:none"
       id="path3782"
       sodipodi:cx="98.571426"
       sodipodi:cy="538.57141"
       sodipodi:rx="7.1428571"
       sodipodi:ry="7.1428571"
       d="m 105.71428,538.57141 a 7.1428571,7.1428571 0 1 1 -14.285711,0 7.1428571,7.1428571 0 1 1 14.285711,0 z"
       transform="translate(201.42857,367.98296)" />
    <path
       transform="translate(201.42857,351.72127)"
       d="m 105.71428,538.57141 a 7.1428571,7.1428571 0 1 1 -14.285711,0 7.1428571,7.1428571 0 1 1 14.285711,0 z"
       sodipodi:ry="7.1428571"
       sodipodi:rx="7.1428571"
       sodipodi:cy="538.57141"
       sodipodi:cx="98.571426"
       id="path3784"
       style="fill:#000000;fill-opacity:1;stroke:none"
       sodipodi:type="arc" />
    <path
       sodipodi:type="arc"
       style="fill:#000000;fill-opacity:1;stroke:none"
       id="path3786"
       sodipodi:cx="98.571426"
       sodipodi:cy="538.57141"
       sodipodi:rx="7.1428571"
       sodipodi:ry="7.1428571"
       d="m 105.71428,538.57141 a 7.1428571,7.1428571 0 1 1 -14.285711,0 7.1428571,7.1428571 0 1 1 14.285711,0 z"
       transform="translate(201.42857,319.19789)" />
    <path
       transform="translate(201.42857,335.45959)"
       d="m 105.71428,538.57141 a 7.1428571,7.1428571 0 1 1 -14.285711,0 7.1428571,7.1428571 0 1 1 14.285711,0 z"
       sodipodi:ry="7.1428571"
       sodipodi:rx="7.1428571"
       sodipodi:cy="538.57141"
       sodipodi:cx="98.571426"
       id="path3788"
       style="fill:#000000;fill-opacity:1;stroke:none"
       sodipodi:type="arc" />
    <path
       transform="translate(201.42857,498.07647)"
       d="m 105.71428,538.57141 a 7.1428571,7.1428571 0 1 1 -14.285711,0 7.1428571,7.1428571 0 1 1 14.285711,0 z"
       sodipodi:ry="7.1428571"
       sodipodi:rx="7.1428571"
       sodipodi:cy="538.57141"
       sodipodi:cx="98.571426"
       id="path3790"
       style="fill:#000000;fill-opacity:1;stroke:none"
       sodipodi:type="arc" />
    <path
       sodipodi:type="arc"
       style="fill:#000000;fill-opacity:1;stroke:none"
       id="path3792"
       sodipodi:cx="98.571426"
       sodipodi:cy="538.57141"
       sodipodi:rx="7.1428571"
       sodipodi:ry="7.1428571"
       d="m 105.71428,538.57141 a 7.1428571,7.1428571 0 1 1 -14.285711,0 7.1428571,7.1428571 0 1 1 14.285711,0 z"
       transform="translate(201.42857,481.81478)" />
    <path
       transform="translate(201.42857,465.55309)"
       d="m 105.71428,538.57141 a 7.1428571,7.1428571 0 1 1 -14.285711,0 7.1428571,7.1428571 0 1 1 14.285711,0 z"
       sodipodi:ry="7.1428571"
       sodipodi:rx="7.1428571"
       sodipodi:cy="538.57141"
       sodipodi:cx="98.571426"
       id="path3794"
       style="fill:#000000;fill-opacity:1;stroke:none"
       sodipodi:type="arc" />
    <path
       sodipodi:type="arc"
       style="fill:#000000;fill-opacity:1;stroke:none"
       id="path3796"
       sodipodi:cx="98.571426"
       sodipodi:cy="538.57141"
       sodipodi:rx="7.1428571"
       sodipodi:ry="7.1428571"
       d="m 105.71428,538.57141 a 7.1428571,7.1428571 0 1 1 -14.285711,0 7.1428571,7.1428571 0 1 1 14.285711,0 z"
       transform="translate(201.42857,449.29141)" />
    <path
       transform="translate(201.42857,416.76803)"
       d="m 105.71428,538.57141 a 7.1428571,7.1428571 0 1 1 -14.285711,0 7.1428571,7.1428571 0 1 1 14.285711,0 z"
       sodipodi:ry="7.1428571"
       sodipodi:rx="7.1428571"
       sodipodi:cy="538.57141"
       sodipodi:cx="98.571426"
       id="path3798"
       style="fill:#000000;fill-opacity:1;stroke:none"
       sodipodi:type="arc" />
    <path
       sodipodi:type="arc"
       style="fill:#000000;fill-opacity:1;stroke:none"
       id="path3800"
       sodipodi:cx="98.571426"
       sodipodi:cy="538.57141"
       sodipodi:rx="7.1428571"
       sodipodi:ry="7.1428571"
       d="m 105.71428,538.57141 a 7.1428571,7.1428571 0 1 1 -14.285711,0 7.1428571,7.1428571 0 1 1 14.285711,0 z"
       transform="translate(201.42857,433.02972)" />
    <path
       transform="translate(379.28572,308.74401)"
       d="m 105.71428,538.57141 a 7.1428571,7.1428571 0 1 1 -14.285711,0 7.1428571,7.1428571 0 1 1 14.285711,0 z"
       sodipodi:ry="7.1428571"
       sodipodi:rx="7.1428571"
       sodipodi:cy="538.57141"
       sodipodi:cx="98.571426"
       id="path3802"
       style="fill:#000000;fill-opacity:1;stroke:none"
       sodipodi:type="arc" />
    <path
       sodipodi:type="arc"
       style="fill:#000000;fill-opacity:1;stroke:none"
       id="path3804"
       sodipodi:cx="98.571426"
       sodipodi:cy="538.57141"
       sodipodi:rx="7.1428571"
       sodipodi:ry="7.1428571"
       d="m 105.71428,538.57141 a 7.1428571,7.1428571 0 1 1 -14.285711,0 7.1428571,7.1428571 0 1 1 14.285711,0 z"
       transform="translate(-16.428566,278.74401)" />
    <path
       transform="translate(46.428577,350.17258)"
       d="m 105.71428,538.57141 a 7.1428571,7.1428571 0 1 1 -14.285711,0 7.1428571,7.1428571 0 1 1 14.285711,0 z"
       sodipodi:ry="7.1428571"
       sodipodi:rx="7.1428571"
       sodipodi:cy="538.57141"
       sodipodi:cx="98.571426"
       id="path3806"
       style="fill:#000000;fill-opacity:1;stroke:none"
       sodipodi:type="arc" />
    <path
       sodipodi:type="arc"
       style="fill:#000000;fill-opacity:1;stroke:none"
       id="path3808"
       sodipodi:cx="98.571426"
       sodipodi:cy="538.57141"
       sodipodi:rx="7.1428571"
       sodipodi:ry="7.1428571"
       d="m 105.71428,538.57141 a 7.1428571,7.1428571 0 1 1 -14.285711,0 7.1428571,7.1428571 0 1 1 14.285711,0 z"
       transform="translate(106.42858,411.60115)" />
    <path
       sodipodi:type="arc"
       style="fill:#000000;fill-opacity:1;stroke:none"
       id="path3810"
       sodipodi:cx="98.571426"
       sodipodi:cy="538.57141"
       sodipodi:rx="7.1428571"
       sodipodi:ry="7.1428571"
       d="m 105.71428,538.57141 a 7.1428571,7.1428571 0 1 1 -14.285711,0 7.1428571,7.1428571 0 1 1 14.285711,0 z"
       transform="translate(323.57143,377.31544)" />
    <path
       transform="translate(260.71429,437.31544)"
       d="m 105.71428,538.57141 a 7.1428571,7.1428571 0 1 1 -14.285711,0 7.1428571,7.1428571 0 1 1 14.285711,0 z"
       sodipodi:ry="7.1428571"
       sodipodi:rx="7.1428571"
       sodipodi:cy="538.57141"
       sodipodi:cx="98.571426"
       id="path3812"
       style="fill:#000000;fill-opacity:1;stroke:none"
       sodipodi:type="arc" />
    <path
       transform="translate(-59.285709,223.02972)"
       d="m 105.71428,538.57141 a 7.1428571,7.1428571 0 1 1 -14.285711,0 7.1428571,7.1428571 0 1 1 14.285711,0 z"
       sodipodi:ry="7.1428571"
       sodipodi:rx="7.1428571"
       sodipodi:cy="538.57141"
       sodipodi:cx="98.571426"
       id="path3814"
       style="fill:#000000;fill-opacity:1;stroke:none"
       sodipodi:type="arc" />
    <path
       sodipodi:type="arc"
       style="fill:#000000;fill-opacity:1;stroke:none"
       id="path3816"
       sodipodi:cx="98.571426"
       sodipodi:cy="538.57141"
       sodipodi:rx="7.1428571"
       sodipodi:ry="7.1428571"
       d="m 105.71428,538.57141 a 7.1428571,7.1428571 0 1 1 -14.285711,0 7.1428571,7.1428571 0 1 1 14.285711,0 z"
       transform="translate(442.14286,244.4583)" />
    <path
       transform="matrix(0.71559632,0,0,0.71559632,-65.996067,455.97293)"
       d="m 365.71428,203.57143 a 150.71428,150.71428 0 1 1 -301.428559,0 150.71428,150.71428 0 1 1 301.428559,0 z"
       sodipodi:ry="150.71428"
       sodipodi:rx="150.71428"
       sodipodi:cy="203.57143"
       sodipodi:cx="215"
       id="path3829"
       style="fill:#000000;fill-opacity:0.87551868;stroke:#000000;stroke-width:10;stroke-linecap:square;stroke-linejoin:round;stroke-miterlimit:4;stroke-opacity:1;stroke-dasharray:none;stroke-dashoffset:0"
       sodipodi:type="arc" />
    <path
       sodipodi:type="arc"
       style="fill:#000000;fill-opacity:0.07468878;stroke:#000000;stroke-width:10;stroke-linecap:square;stroke-linejoin:round;stroke-miterlimit:4;stroke-opacity:1;stroke-dasharray:none;stroke-dashoffset:0"
       id="path3831"
       sodipodi:cx="215"
       sodipodi:cy="203.57143"
       sodipodi:rx="150.71428"
       sodipodi:ry="150.71428"
       d="m 365.71428,203.57143 a 150.71428,150.71428 0 1 1 -301.428559,0 150.71428,150.71428 0 1 1 301.428559,0 z"
       transform="matrix(0.46330273,0,0,0.46330273,244.67562,596.61843)" />
  </g>
  <g
     inkscape:groupmode="layer"
     id="layer3"
     inkscape:label="Capa#1">
    <rect
       style="fill:none;fill-opacity:0.07468878000000000;stroke:#000000;stroke-opacity:1;stroke-width:40;stroke-miterlimit:30;stroke-dasharray:none"
       id="rect3834"
       width="600"
       height="600"
       x="0"
       y="0"
       ry="30"
       inkscape:export-filename="/home/chepecarlos/sketchbook/EpicApp/icon-36.png"
       inkscape:export-xdpi="5.0625"
       inkscape:export-ydpi="5.0625" />
  </g>
</svg>
