<?xml version="1.0" encoding="UTF-8" standalone="no"?>
<!-- Created with Inkscape (http://www.inkscape.org/) -->

<svg
   xmlns:dc="http://purl.org/dc/elements/1.1/"
   xmlns:cc="http://creativecommons.org/ns#"
   xmlns:rdf="http://www.w3.org/1999/02/22-rdf-syntax-ns#"
   xmlns:svg="http://www.w3.org/2000/svg"
   xmlns="http://www.w3.org/2000/svg"
   xmlns:sodipodi="http://sodipodi.sourceforge.net/DTD/sodipodi-0.dtd"
   xmlns:inkscape="http://www.inkscape.org/namespaces/inkscape"
   width="400"
   height="200"
   id="svg3079"
   version="1.1"
   inkscape:version="0.48.4 r9939"
   sodipodi:docname="Nuevo documento 4">
  <defs
     id="defs3081" />
  <sodipodi:namedview
     id="base"
     pagecolor="#ffffff"
     bordercolor="#666666"
     borderopacity="1.0"
     inkscape:pageopacity="0.0"
     inkscape:pageshadow="2"
     inkscape:zoom="0.7"
     inkscape:cx="343.04628"
     inkscape:cy="81.075213"
     inkscape:document-units="px"
     inkscape:current-layer="layer1"
     showgrid="false"
     inkscape:window-width="1364"
     inkscape:window-height="703"
     inkscape:window-x="0"
     inkscape:window-y="0"
     inkscape:window-maximized="1" />
  <metadata
     id="metadata3084">
    <rdf:RDF>
      <cc:Work
         rdf:about="">
        <dc:format>image/svg+xml</dc:format>
        <dc:type
           rdf:resource="http://purl.org/dc/dcmitype/StillImage" />
        <dc:title></dc:title>
      </cc:Work>
    </rdf:RDF>
  </metadata>
  <g
     inkscape:label="Capa 1"
     inkscape:groupmode="layer"
     id="layer1"
     transform="translate(0,-852.36218)">
    <g
       id="g3126"
       transform="translate(2.8571438,-6.6055)">
      <g
         id="text2985"
         style="font-size:160.81037903px;font-style:normal;font-variant:normal;font-weight:normal;font-stretch:normal;line-height:188.99999857%;letter-spacing:10px;word-spacing:0px;fill:#000000;fill-opacity:1;stroke:none;font-family:Chintzy CPU BRK;-inkscape-font-specification:Chintzy CPU BRK"
         transform="translate(-4.7670729,202.74348)">
        <path
           id="path3015"
           style="fill:#000000"
           d="m 9.1899824,747.49818 -1.7689142,-3.69864 0,-59.01741 1.7689142,-3.69864 18.9756246,-18.81481 3.537828,-1.76892 70.595755,-0.64324 c 1.28639,1.1e-4 2.57287,0.21453 3.85945,0.64324 1.28638,0.42894 2.46566,1.01858 3.53783,1.76892 1.07196,0.75055 1.92962,1.66181 2.57297,2.73377 0.75034,1.07218 1.12556,2.30506 1.12567,3.69864 -1.1e-4,1.28659 -0.37533,2.51946 -1.12567,3.69864 -0.64335,1.07217 -1.50101,2.03703 -2.57297,2.89459 -1.07217,0.75054 -2.25145,1.34018 -3.53783,1.76891 -1.28658,0.42892 -2.57306,0.64334 -3.85945,0.64324 l -69.309272,0 c -0.643268,1e-4 -1.447319,0.32172 -2.412155,0.96487 -0.857679,0.53612 -1.715334,1.28657 -2.572966,2.25134 -0.75047,0.85775 -1.447314,1.769 -2.090535,2.73378 -0.536054,0.96495 -0.804071,1.769 -0.804052,2.41215 l 0,10.93511 c -1.9e-5,1.17935 0.375204,2.30502 1.125673,3.37702 0.750427,0.96493 1.661685,1.87619 2.733776,2.73377 1.179252,0.75052 2.41213,1.39376 3.698639,1.92973 1.286455,0.42889 2.412126,0.6433 3.377018,0.64324 l 69.952514,0 c 0.85755,6e-5 1.71521,0.32168 2.57297,0.96486 0.85755,0.5361 1.6616,1.23294 2.41215,2.09054 0.75034,0.85771 1.33998,1.82257 1.76892,2.89458 0.42872,0.96492 0.64313,1.82258 0.64324,2.57297 -1.1e-4,1.28654 -0.37533,2.51942 -1.12567,3.69864 -0.64335,1.07212 -1.50101,2.03698 -2.57297,2.89459 -1.07217,0.75049 -2.25145,1.39373 -3.53783,1.92972 -1.28658,0.42887 -2.57306,0.64329 -3.85945,0.64324 l -54.193096,0 c -0.643283,5e-5 -1.447334,0.32167 -2.412156,0.96486 -0.857694,0.53608 -1.715348,1.28653 -2.572966,2.25135 -0.750485,0.8577 -1.447329,1.76896 -2.090535,2.73378 -0.536069,0.85769 -0.804086,1.60814 -0.804051,2.25134 l 0,10.93511 c -3.5e-5,1.1793 0.375189,2.30497 1.125672,3.37702 0.857619,0.96488 1.82248,1.87614 2.894587,2.73377 1.179237,0.85768 2.358511,1.55452 3.537828,2.09054 1.28644,0.42884 2.412112,0.64326 3.377018,0.64324 l 54.836339,0 c 0.85755,2e-5 1.71521,0.32164 2.57297,0.96486 0.85755,0.53605 1.6616,1.2329 2.41215,2.09054 0.75034,0.85766 1.33998,1.82253 1.76892,2.89458 0.42872,0.96488 0.64313,1.82253 0.64324,2.57297 -1.1e-4,1.3937 -0.37533,2.62657 -1.12567,3.69864 -0.64335,1.07207 -1.50101,1.98333 -2.57297,2.73377 -1.07217,0.75045 -2.25145,1.34009 -3.53783,1.76892 -1.28658,0.42883 -2.57306,0.64324 -3.85945,0.64324 l -66.897116,0 c -0.964891,0 -2.251372,-0.21441 -3.859449,-0.64324 -1.500921,-0.42883 -2.626593,-1.01847 -3.377018,-1.76892 L 9.1899824,747.49818"
           inkscape:connector-curvature="0" />
        <path
           id="path3017"
           style="fill:#000000"
           d="m 208.73517,710.6726 c -9e-5,-1.50083 -0.2145,-3.16254 -0.64325,-4.98512 -0.42891,-1.82245 -1.23296,-3.32335 -2.41215,-4.50269 l -11.41754,-11.41754 c -0.85772,-0.85757 -2.037,-1.55442 -3.53783,-2.09053 -1.50096,-0.64316 -2.78744,-0.96478 -3.85945,-0.96486 l -49.85121,0 c -2.68019,8e-5 -5.09234,1.07215 -7.23647,3.2162 -2.03693,2.03701 -3.0554,4.39556 -3.0554,7.07566 l 0,61.42957 c 0,1.71531 0.37522,3.21621 1.12568,4.50269 0.75044,1.28648 1.7153,2.35855 2.89458,3.2162 1.17927,0.85766 2.46575,1.5009 3.85945,1.92973 1.50089,0.42883 3.00178,0.64324 4.50269,0.64324 1.7153,0 3.59142,-0.21441 5.62836,-0.64324 2.03691,-0.42883 3.53781,-1.44729 4.5027,-3.0554 0.4288,-0.64324 0.96483,-1.6617 1.6081,-3.0554 0.75042,-1.39368 1.12565,-2.19773 1.12567,-2.41215 l 0,-17.52833 c -2e-5,-0.85763 0.26799,-1.71529 0.80405,-2.57297 0.53601,-0.96483 1.23285,-1.82249 2.09054,-2.57297 0.85762,-0.75041 1.71528,-1.34005 2.57296,-1.76891 0.96483,-0.536 1.87609,-0.80402 2.73378,-0.80405 l 29.10668,0 c 0.10714,3e-5 0.58957,-0.26798 1.44729,-0.80405 0.9648,-0.536 1.71525,-0.96483 2.25135,-1.28649 0.21434,-0.10717 0.53596,-0.26798 0.96486,-0.48243 0.42876,-0.32158 0.69678,-0.53599 0.80405,-0.64324 1.60804,-1.39365 3.21614,-2.78734 4.82431,-4.18107 1.60803,-1.50085 3.10893,-3.05535 4.50269,-4.6635 1.39361,-1.71526 2.51929,-3.48417 3.37702,-5.30674 0.85757,-1.92967 1.2864,-4.02021 1.28649,-6.27161 m -68.02279,0 c -2e-5,-1.07201 0.10719,-2.19768 0.32162,-3.37702 0.3216,-1.17921 0.75043,-2.25128 1.28648,-3.2162 0.64322,-0.9648 1.39367,-1.76885 2.25134,-2.41216 0.96485,-0.64317 2.09052,-0.96479 3.37702,-0.96486 l 39.55936,0 c 1.28641,7e-5 2.35848,0.32169 3.2162,0.96486 0.9648,0.64331 1.71525,1.44736 2.25135,2.41216 0.64317,0.96492 1.1256,2.03699 1.44729,3.2162 0.32155,1.07213 0.48236,2.0906 0.48243,3.0554 -7e-5,2.46582 -0.69691,4.82437 -2.09053,7.07566 -1.39376,2.14419 -3.5915,3.21625 -6.59323,3.21621 l -36.98638,0 c -2.89461,4e-5 -5.03875,-1.01842 -6.43242,-3.0554 -1.39371,-2.14409 -2.09055,-4.44903 -2.09053,-6.91485"
           inkscape:connector-curvature="0" />
        <path
           id="path3019"
           style="fill:#000000"
           d="m 229.06724,688.80239 c -1.92973,8e-5 -3.59144,0.80413 -4.98512,2.41216 -1.28649,1.60818 -1.92973,3.43069 -1.92973,5.46755 l 0,62.39443 c 0,1.71532 0.37522,3.16261 1.12567,4.34188 0.75045,1.17928 1.71531,2.19774 2.89459,3.05539 1.28648,0.75045 2.62656,1.34009 4.02026,1.76892 1.50089,0.32162 2.94818,0.48243 4.34188,0.48243 3.10898,0 5.94996,-0.85765 8.52295,-2.57297 2.57294,-1.7153 3.85942,-4.28827 3.85945,-7.71889 l 0,-27.8202 c -3e-5,-1.71527 -0.58966,-3.26977 -1.76891,-4.6635 -1.1793,-1.39365 -2.46579,-2.73373 -3.85945,-4.02026 -1.28651,-1.39364 -2.51938,-2.73373 -3.69864,-4.02026 -1.17929,-1.28643 -1.76893,-2.68012 -1.76892,-4.18107 l 0,-17.52833 c -1e-5,-1.71524 -0.69686,-3.37694 -2.09053,-4.98512 -1.3937,-1.60803 -2.9482,-2.41208 -4.6635,-2.41216"
           inkscape:connector-curvature="0" />
        <path
           id="path3021"
           style="fill:#000000"
           d="m 340.66421,705.20505 c -8e-5,-0.53597 -0.10729,-1.17921 -0.32162,-1.92972 -0.10729,-0.85759 -0.3753,-1.55444 -0.80405,-2.09054 l -11.57835,-11.57835 c -0.85772,-0.75037 -2.037,-1.44721 -3.53783,-2.09053 -1.50096,-0.64316 -2.78744,-0.96478 -3.85945,-0.96486 l -38.27287,0 c -0.85767,8e-5 -2.03695,0.3217 -3.53782,0.96486 -1.50092,0.53611 -2.51938,1.07215 -3.0554,1.6081 l -12.22159,12.06078 c -0.75045,0.75052 -1.4473,1.82258 -2.09054,3.21621 -0.64324,1.28654 -0.96486,2.46582 -0.96486,3.53783 l 0,38.91611 c 0,0.85767 0.26802,2.03695 0.80405,3.53783 0.53604,1.50091 1.07207,2.51938 1.60811,3.05539 l 12.22159,12.22159 c 0.75043,0.75045 1.76889,1.4473 3.05539,2.09054 1.39367,0.64324 2.57295,0.96486 3.53783,0.96486 l 38.91611,0 c 1.07201,0 2.35849,-0.26802 3.85945,-0.80405 1.50083,-0.64324 2.68011,-1.39369 3.53783,-2.25135 l 11.57835,-11.57835 c 0.53595,-0.53601 0.85757,-1.07205 0.96486,-1.6081 0.21433,-0.64322 0.32154,-1.28646 0.32162,-1.92972 -8e-5,-3.3234 -1.66179,-4.9851 -4.98512,-4.98513 -1.60818,3e-5 -3.00187,0.48246 -4.18107,1.4473 -1.17935,0.96488 -2.30502,2.03695 -3.37702,3.21621 -1.07214,1.07208 -2.25141,2.09055 -3.53783,3.05539 -1.17934,0.96488 -2.57303,1.44731 -4.18107,1.4473 l -27.33776,0 c -0.64328,10e-6 -1.39372,-0.2144 -2.25135,-0.64325 -0.85768,-0.42881 -1.71534,-0.96484 -2.57296,-1.6081 -0.75048,-0.64322 -1.39372,-1.34007 -1.92973,-2.09053 -0.53606,-0.85764 -0.80408,-1.66169 -0.80405,-2.41216 l 0,-17.52833 c -3e-5,-1.82248 -0.58966,-3.43058 -1.76891,-4.82431 -1.1793,-1.50085 -2.46578,-2.94815 -3.85945,-4.34188 -1.39371,-1.50085 -2.68019,-3.05535 -3.85945,-4.6635 -1.17929,-1.60805 -1.76893,-3.53778 -1.76891,-5.78918 -2e-5,-1.07201 0.10719,-2.19768 0.32162,-3.37701 0.3216,-1.17922 0.75043,-2.25129 1.28648,-3.21621 0.53602,-1.07201 1.28646,-1.92966 2.25134,-2.57297 0.96485,-0.75038 2.09052,-1.1256 3.37702,-1.12567 l 38.91611,0 c 1.60804,7e-5 3.00173,0.4825 4.18107,1.44729 1.28642,0.96493 2.46569,2.037 3.53783,3.21621 1.072,1.07213 2.19767,2.0906 3.37702,3.0554 1.1792,0.96492 2.57289,1.44735 4.18107,1.44729 1.39361,6e-5 2.51928,-0.32156 3.37702,-0.96486 0.96478,-0.75039 1.44721,-1.92966 1.44729,-3.53783"
           inkscape:connector-curvature="0" />
      </g>
      <g
         id="text2991"
         style="font-size:107.13037872px;font-style:normal;font-variant:normal;font-weight:normal;font-stretch:normal;line-height:125%;letter-spacing:5px;word-spacing:0px;fill:#000000;fill-opacity:1;stroke:none;font-family:Chintzy CPU BRK;-inkscape-font-specification:Chintzy CPU BRK"
         transform="translate(-4.7670729,202.74348)">
        <path
           id="path3024"
           style="fill:#000000"
           d="m 200.3602,827.09485 0,18.96207 c 0,0.14285 0.14284,0.53566 0.42852,1.17844 0.3571,0.64279 0.60707,1.07131 0.74991,1.28556 1.21414,1.64267 2.57113,2.74968 4.07096,3.32105 1.57123,0.49994 3.32103,0.74991 5.24939,0.74991 1.92833,0 3.64241,-0.24997 5.14225,-0.74991 1.57123,-0.57137 2.96392,-1.67838 4.17809,-3.32105 0.0714,-0.14283 0.21424,-0.3928 0.42852,-0.74991 0.21424,-0.42852 0.4285,-0.85704 0.64278,-1.28556 0.21424,-0.49994 0.39279,-0.96417 0.53565,-1.3927 0.14282,-0.42851 0.21424,-0.7499 0.21426,-0.96417 l 0,-16.28382 c -2e-5,-0.4285 0.17853,-0.92844 0.53566,-1.49982 0.42849,-0.64276 0.92844,-1.21412 1.49982,-1.71409 0.64276,-0.57133 1.24983,-1.03557 1.82122,-1.3927 0.64275,-0.42849 1.1784,-0.64275 1.60695,-0.64278 l 27.63964,0 c 0.64273,3e-5 1.32122,0.25 2.03548,0.74991 0.71414,0.49998 1.32121,1.10705 1.82122,1.82122 0.5713,0.71423 1.03553,1.46414 1.39269,2.24974 0.35704,0.78565 0.53559,1.46414 0.53565,2.03548 l 0,16.6052 c -6e-5,0.57137 0.17849,1.17844 0.53565,1.82122 0.42846,0.57137 0.9284,1.10702 1.49983,1.60696 0.5713,0.42852 1.17837,0.78562 1.82122,1.0713 0.64271,0.28568 1.24978,0.42852 1.82121,0.42852 1.71402,0 3.10671,-0.7142 4.17809,-2.14261 1.14265,-1.49982 1.71401,-3.07106 1.71408,-4.71373 l 0,-14.67686 c -7e-5,-0.71418 -0.14291,-1.53551 -0.42852,-2.464 -0.28575,-0.99986 -0.67856,-1.78548 -1.17843,-2.35687 l -6.85635,-7.28487 -1.39269,-2.464 0,-15.74816 c -6e-5,-0.28563 -0.0715,-0.64273 -0.21426,-1.0713 -0.14291,-0.49989 -0.32146,-0.99983 -0.53565,-1.49983 -0.14291,-0.49989 -0.32146,-0.96412 -0.53566,-1.3927 -0.21432,-0.42846 -0.39287,-0.74985 -0.53565,-0.96417 l -12.64138,-12.53425 c -0.42857,-0.49987 -1.17848,-0.89268 -2.24974,-1.17844 -1.07135,-0.28561 -1.92839,-0.42845 -2.57113,-0.42852 l -16.60521,0.42852 -2.464,1.17844 -12.53425,12.53425 -1.3927,2.464 0,16.60521 c -1e-5,0.42856 -0.21427,1.10705 -0.64278,2.03548 -0.42853,0.9285 -0.82134,1.60699 -1.17843,2.03547 -0.28569,0.28572 -0.74992,0.78566 -1.3927,1.49983 -0.64279,0.64281 -1.35699,1.35702 -2.14261,2.14261 -0.7142,0.78565 -1.39269,1.53556 -2.03547,2.24973 -0.64279,0.64282 -1.10702,1.10705 -1.3927,1.3927 l -1.17843,2.464 m 50.24415,-25.92555 c -6e-5,0.99993 -0.1429,2.07123 -0.42853,3.21391 -0.28573,1.07135 -0.74996,2.07123 -1.39269,2.99965 -0.57141,0.92851 -1.32132,1.67842 -2.24974,2.24974 -0.92851,0.5714 -1.99981,0.85708 -3.21391,0.85704 l -13.81982,0 c -0.64281,4e-5 -1.39272,-0.1428 -2.24974,-0.42852 -0.85707,-0.35706 -1.6784,-0.78558 -2.464,-1.28557 -0.71422,-0.49989 -1.32129,-1.07126 -1.82121,-1.71408 -0.49997,-0.71416 -0.74994,-1.46407 -0.74991,-2.24974 l 0,-7.28487 c -3e-5,-0.49988 0.17852,-1.03553 0.53565,-1.60695 0.4285,-0.64273 0.89273,-1.21409 1.39269,-1.71409 0.57134,-0.5713 1.1427,-1.03553 1.71409,-1.39269 0.64275,-0.42846 1.1784,-0.64272 1.60695,-0.64279 l 17.46226,0 c 1.07125,7e-5 1.96401,0.32146 2.67826,0.96418 0.71415,0.64284 1.28551,1.42846 1.71408,2.35687 0.42847,0.92852 0.74986,1.9284 0.96417,2.99965 0.21421,0.99993 0.32134,1.89269 0.3214,2.67826"
           inkscape:connector-curvature="0" />
        <path
           id="path3026"
           style="fill:#000000"
           d="m 334.48578,813.91781 c -5e-5,-0.99984 -0.14289,-2.10686 -0.42852,-3.32104 -0.28574,-1.2141 -0.82139,-2.21398 -1.60696,-2.99965 l -7.60625,-7.60626 c -0.57141,-0.57131 -1.35703,-1.03554 -2.35687,-1.39269 -0.99993,-0.42847 -1.85697,-0.64273 -2.57113,-0.64279 l -33.21042,0 c -1.78551,6e-5 -3.39246,0.71426 -4.82086,2.14261 -1.35699,1.35704 -2.03548,2.92828 -2.03548,4.71374 l 0,40.9238 c 0,1.14273 0.24997,2.14262 0.74991,2.99965 0.49994,0.85705 1.14272,1.57125 1.92835,2.14261 0.78562,0.57137 1.64266,0.99989 2.57113,1.28557 0.99987,0.28568 1.99976,0.42852 2.99965,0.42852 1.14271,0 2.39256,-0.14284 3.74956,-0.42852 1.35697,-0.28568 2.35685,-0.96418 2.99965,-2.03548 0.28567,-0.42852 0.64277,-1.10701 1.07131,-2.03548 0.49992,-0.92846 0.74989,-1.46411 0.74991,-1.60695 l 0,-11.67721 c -2e-5,-0.57135 0.17853,-1.14271 0.53565,-1.71409 0.35708,-0.64276 0.82131,-1.21412 1.39269,-1.71409 0.57135,-0.49992 1.14271,-0.89273 1.71409,-1.17843 0.64276,-0.35708 1.24983,-0.53563 1.82122,-0.53565 l 19.3906,0 c 0.0714,2e-5 0.39276,-0.17853 0.96417,-0.53566 0.64274,-0.35707 1.14268,-0.64275 1.49982,-0.85704 0.1428,-0.0714 0.35706,-0.17852 0.64279,-0.32139 0.28563,-0.21423 0.46418,-0.35708 0.53565,-0.42852 1.07125,-0.92844 2.14256,-1.8569 3.21391,-2.78539 1.07125,-0.99985 2.07114,-2.03545 2.99965,-3.10678 0.92841,-1.14269 1.67832,-2.32113 2.24974,-3.5353 0.57131,-1.28553 0.85699,-2.67823 0.85704,-4.17809 m -45.31615,0 c -10e-6,-0.71416 0.0714,-1.46407 0.21426,-2.24974 0.21425,-0.78558 0.49993,-1.49978 0.85705,-2.1426 0.4285,-0.64274 0.92845,-1.17839 1.49982,-1.60696 0.64277,-0.42848 1.39268,-0.64274 2.24974,-0.64278 l 26.35407,0 c 0.857,4e-5 1.5712,0.2143 2.14261,0.64278 0.64274,0.42857 1.14268,0.96422 1.49982,1.60696 0.42848,0.64282 0.74987,1.35702 0.96418,2.1426 0.21421,0.71425 0.32134,1.39274 0.32139,2.03548 -5e-5,1.6427 -0.46428,3.21395 -1.3927,4.71374 -0.9285,1.42844 -2.39262,2.14264 -4.39234,2.1426 l -24.63999,0 c -1.92836,4e-5 -3.35676,-0.67845 -4.28521,-2.03547 -0.92848,-1.42837 -1.39271,-2.96391 -1.3927,-4.60661"
           inkscape:connector-curvature="0" />
        <path
           id="path3028"
           style="fill:#000000"
           d="m 396.39879,813.91781 c -5e-5,-0.99984 -0.14289,-2.10686 -0.42852,-3.32104 -0.28574,-1.2141 -0.82139,-2.21398 -1.60696,-2.99965 l -7.60625,-7.60626 c -0.57141,-0.57131 -1.35703,-1.03554 -2.35687,-1.39269 -0.99993,-0.42847 -1.85697,-0.64273 -2.57113,-0.64279 l -33.21042,0 c -1.78551,6e-5 -3.39246,0.71426 -4.82086,2.14261 -1.35699,1.35704 -2.03548,2.92828 -2.03548,4.71374 l 0,40.9238 c 0,1.14273 0.24997,2.14262 0.74991,2.99965 0.49994,0.85705 1.14272,1.57125 1.92835,2.14261 0.78562,0.57137 1.64266,0.99989 2.57113,1.28557 0.99987,0.28568 1.99976,0.42852 2.99965,0.42852 1.14271,0 2.39256,-0.14284 3.74956,-0.42852 1.35697,-0.28568 2.35685,-0.96418 2.99965,-2.03548 0.28567,-0.42852 0.64277,-1.10701 1.0713,-2.03548 0.49993,-0.92846 0.7499,-1.46411 0.74992,-1.60695 l 0,-11.67721 c -2e-5,-0.57135 0.17853,-1.14271 0.53565,-1.71409 0.35708,-0.64276 0.82131,-1.21412 1.39269,-1.71409 0.57135,-0.49992 1.14271,-0.89273 1.71409,-1.17843 0.64276,-0.35708 1.24983,-0.53563 1.82122,-0.53565 l 19.3906,0 c 0.0714,2e-5 0.39276,-0.17853 0.96417,-0.53566 0.64274,-0.35707 1.14268,-0.64275 1.49982,-0.85704 0.1428,-0.0714 0.35706,-0.17852 0.64279,-0.32139 0.28563,-0.21423 0.46418,-0.35708 0.53565,-0.42852 1.07125,-0.92844 2.14256,-1.8569 3.21391,-2.78539 1.07125,-0.99985 2.07114,-2.03545 2.99965,-3.10678 0.92841,-1.14269 1.67832,-2.32113 2.24974,-3.5353 0.5713,-1.28553 0.85699,-2.67823 0.85704,-4.17809 m -45.31615,0 c -1e-5,-0.71416 0.0714,-1.46407 0.21426,-2.24974 0.21425,-0.78558 0.49993,-1.49978 0.85704,-2.1426 0.42851,-0.64274 0.92846,-1.17839 1.49983,-1.60696 0.64277,-0.42848 1.39268,-0.64274 2.24974,-0.64278 l 26.35407,0 c 0.857,4e-5 1.5712,0.2143 2.14261,0.64278 0.64274,0.42857 1.14268,0.96422 1.49982,1.60696 0.42848,0.64282 0.74987,1.35702 0.96418,2.1426 0.21421,0.71425 0.32134,1.39274 0.32139,2.03548 -5e-5,1.6427 -0.46428,3.21395 -1.3927,4.71374 -0.9285,1.42844 -2.39262,2.14264 -4.39234,2.1426 l -24.63999,0 c -1.92836,4e-5 -3.35676,-0.67845 -4.28521,-2.03547 -0.92848,-1.42837 -1.39271,-2.96391 -1.3927,-4.60661"
           inkscape:connector-curvature="0" />
      </g>
    </g>
  </g>
</svg>
